HIERARCHY
ROOT Hips
{
  OFFSET -102.467 93.6631 130.069
  CHANNELS 6 Xposition Yposition Zposition Zrotation Xrotation Yrotation
  JOINT LeftUpLeg
  {
    OFFSET 8.64259 1.95398 -2.38835
    CHANNELS 3 Zrotation Xrotation Yrotation
    JOINT LeftLeg
    {
      OFFSET 43.7702 0 0
      CHANNELS 3 Zrotation Xrotation Yrotation
      JOINT LeftFoot
      {
        OFFSET 40.6238 0 0
        CHANNELS 3 Zrotation Xrotation Yrotation
        JOINT LeftToeBase
        {
          OFFSET 12.7242 0 0
          CHANNELS 3 Zrotation Xrotation Yrotation
          End Site
          {
            OFFSET 0 0 0
          }
        }
      }
    }
  }
  JOINT RightUpLeg
  {
    OFFSET -8.2249 1.95398 -2.59336
    CHANNELS 3 Zrotation Xrotation Yrotation
    JOINT RightLeg
    {
      OFFSET 43.5653 0 0
      CHANNELS 3 Zrotation Xrotation Yrotation
      JOINT RightFoot
      {
        OFFSET 40.6238 0 0
        CHANNELS 3 Zrotation Xrotation Yrotation
        JOINT RightToeBase
        {
          OFFSET 12.7242 0 0
          CHANNELS 3 Zrotation Xrotation Yrotation
          End Site
          {
            OFFSET 0 0 0
          }
        }
      }
    }
  }
  JOINT Spine
  {
    OFFSET 0.165834 0.87714 6.61349
    CHANNELS 3 Zrotation Xrotation Yrotation
    JOINT Spine1
    {
      OFFSET 7.38963 1.71661e-005 0
      CHANNELS 3 Zrotation Xrotation Yrotation
      JOINT Spine2
      {
        OFFSET 11.9445 1.14441e-005 0
        CHANNELS 3 Zrotation Xrotation Yrotation
        JOINT Spine3
        {
          OFFSET 14.7254 4.19617e-005 0
          CHANNELS 3 Zrotation Xrotation Yrotation
          JOINT Spine4
          {
            OFFSET 10.9679 0 0
            CHANNELS 3 Zrotation Xrotation Yrotation
            JOINT RightShoulder
            {
              OFFSET 2.46616 -1.6653 3.69651
              CHANNELS 3 Zrotation Xrotation Yrotation
              JOINT RightArm
              {
                OFFSET 13.0012 0 0
                CHANNELS 3 Zrotation Xrotation Yrotation
                JOINT RightForeArm
                {
                  OFFSET 28.7848 1.52588e-005 0
                  CHANNELS 3 Zrotation Xrotation Yrotation
                  JOINT RightHand
                  {
                    OFFSET 26.5688 1.52588e-005 0
                    CHANNELS 3 Zrotation Xrotation Yrotation
                    End Site
                    {
                      OFFSET 0 0 0
                    }
                  }
                }
              }
            }
            JOINT LeftShoulder
            {
              OFFSET 2.38034 -1.29275 -3.7523
              CHANNELS 3 Zrotation Xrotation Yrotation
              JOINT LeftArm
              {
                OFFSET 16.3182 6.10351e-005 0
                CHANNELS 3 Zrotation Xrotation Yrotation
                JOINT LeftForeArm
                {
                  OFFSET 27.0901 0 0
                  CHANNELS 3 Zrotation Xrotation Yrotation
                  JOINT LeftHand
                  {
                    OFFSET 24.5451 1.52588e-005 0
                    CHANNELS 3 Zrotation Xrotation Yrotation
                    End Site
                    {
                      OFFSET 0 0 0
                    }
                  }
                }
              }
            }
            JOINT Neck
            {
              OFFSET 5.0226 -0.0266342 0
              CHANNELS 3 Zrotation Xrotation Yrotation
              JOINT Head
              {
                OFFSET 6.69363 2.86102e-005 0
                CHANNELS 3 Zrotation Xrotation Yrotation
                End Site
                {
                  OFFSET 0 0 0
                }
              }
            }
          }
        }
      }
    }
  }
}
MOTION
Frames:	15
Frame Time:	0.0416667
170.31 97.0039 -182.253 -99.191 -44.7756 -94.522 -179.201 17.8156 88.6701 -8.76745 11.2224 2.0377 52.0984 -1.10706 6.05733 40.7375 0.159682 9.07498 174.309 -8.99918 88.4132 -31.6286 -11.9401 -1.50949 65.2408 5.50739 16.5075 46.11 -0.258573 12.2411 0.949092 7.64781 -90.4129 11.586 1.69469 -0.997812 -0.0842458 1.64916 -1.07145 -22.6274 1.91621 -0.442212 -2.61478 1.91622 -0.442221 102.11 -45.465 -82.256 31.0992 -13.9835 -9.75211 -9.7793 -10.4454 -33.5401 -12.0384 -0.525413 -0.112959 -81.9544 -54.5749 90.9476 -29.2226 -0.730845 -0.678418 6.96385 33.0277 -9.76416 -10.6997 -0.252769 -2.14168 6.4719 0.106855 -3.77508 -26.0839 -0.208556 5.41365 
163.068 95.6004 -174.008 -100.825 -45.7405 -98.0268 -179.543 21.0125 85.5907 -27.8768 15.0955 2.0632 53.7673 -1.89312 9.58963 41.4195 -0.574893 4.8892 172.53 -7.74948 83.4688 -41.0213 -12.4672 -1.91887 48.5658 11.7796 20.8118 38.3087 4.20592 25.6619 0.745084 7.63509 -89.9071 11.6044 1.52578 0.0287306 -0.0656217 1.52558 -0.0384735 -22.6075 1.44659 0.486058 -2.5948 1.44661 0.486068 101.921 -46.7296 -82.5627 33.0311 -13.523 -5.69639 -8.04089 -12.1908 -27.7723 -11.2651 -0.619173 1.29069 -82.1613 -54.4775 90.6422 -27.6736 -0.489055 -1.37729 6.74101 32.7008 -9.81441 -10.2536 -0.272679 -1.73189 6.51593 -0.0312766 -4.3577 -26.5426 -0.122073 4.75343 
156.556 95.8226 -166.66 -103.048 -47.0998 -101.227 -179.215 16.1398 82.9024 -34.5167 15.4019 2.37811 60.7166 3.74755 14.9004 37.9968 -1.18129 -0.61669 173.526 4.31861 83.3968 -61.5117 -17.235 -2.29426 42.9842 12.1495 13.1173 26.2496 2.50491 14.6244 0.340407 7.87401 -89.6271 11.1212 0.850612 0.65718 -0.549604 0.878701 0.619104 -23.0845 0.613776 0.882432 -3.0718 0.613789 0.882438 101.964 -46.9135 -82.4922 34.8252 -13.0363 -4.53493 -6.49725 -14.9342 -21.0833 -7.17988 -0.425516 1.74033 -83.0347 -54.0014 89.3422 -27.1632 1.04495 -6.7925 7.21734 32.6521 -11.1344 -9.52092 -0.296819 -1.00674 8.63967 0.850765 -3.99576 -27.0872 0.545758 5.69002 
149.904 97.2391 -159.464 -104.766 -49.8002 -100.552 -178.621 8.42741 85.3298 -34.1965 17.5078 3.93708 64.9198 7.02205 15.1315 40.2382 -1.4339 -0.58739 173.001 15.879 87.7674 -64.6869 -15.9173 -0.782527 50.3557 8.7477 12.2505 24.6383 2.30622 11.0655 -0.138634 7.93805 -89.8801 10.9998 -0.220352 0.260714 -0.671116 -0.208672 0.270148 -23.2063 -0.288527 0.182431 -3.1937 -0.288528 0.182423 101.875 -46.9796 -82.6356 36.2979 -11.5354 -1.78366 -5.34618 -15.2968 -17.4549 -4.54169 -0.251976 1.46923 -82.6357 -53.0831 89.8461 -26.5303 3.47609 -13.8744 8.57988 32.3458 -14.4393 -8.11177 -0.220378 -1.84288 6.77372 1.71754 -3.20041 -27.4468 1.09823 5.98398 
143.409 98.1768 -152.679 -105.144 -52.4015 -99.7209 -177.038 0.455807 87.5457 -30.772 21.1712 4.4163 66.9126 9.32837 15.5099 42.15 -1.57617 -0.0613154 172.114 21.3542 89.6094 -49.5543 -8.70109 1.43741 54.4796 7.18698 13.4651 30.6386 1.26913 9.6427 -0.449091 7.83621 -90.0681 11.2016 -0.925416 -0.0447724 -0.469031 -0.926467 -0.00400715 -23.0066 -0.869166 -0.320848 -2.99393 -0.869173 -0.320854 101.955 -48.1735 -82.5029 36.146 -10.578 3.03707 -5.19354 -14.9856 -17.3179 -5.00701 -0.252593 0.780204 -82.1864 -51.8208 90.4097 -25.279 7.3509 -19.2855 10.551 27.6586 -21.791 -4.53994 -0.139493 -1.7818 5.03132 1.56313 -4.76753 -26.7564 0.977082 7.19224 
136.951 98.3348 -146.086 -104.142 -56.2006 -100.222 -176.307 -5.83065 88.8233 -26.5694 22.9627 4.74242 67.4033 9.86227 13.2643 45.5385 -1.37264 2.71294 173.948 19.2517 87.5183 -19.6994 0.538293 1.61551 55.7931 8.04178 17.1346 25.8642 0.915505 1.76305 -0.772561 7.71663 -90.0312 11.4424 -1.55171 0.0950401 -0.227646 -1.54601 0.163248 -22.77 -1.50851 -0.375814 -2.75732 -1.5085 -0.375814 102.583 -48.6784 -81.504 36.5444 -8.16363 5.1877 -5.25709 -15.4201 -16.1671 -4.42211 -0.246473 1.51915 -83.5134 -51.6987 88.4264 -21.8654 9.88031 -24.1183 12.4491 23.925 -28.8211 -3.93077 -0.116969 -2.39993 6.11643 1.41628 -5.99572 -26.8078 1.06937 7.40877 
130.012 97.8593 -139.226 -104.886 -59.3691 -102.374 -176.205 -10.7838 89.9047 -27.4963 27.1564 6.16928 64.9147 7.98495 10.7623 53.1969 -1.43789 5.09065 176.793 17.727 85.395 -8.06575 5.02678 -0.654914 57.1358 8.87453 19.1028 22.8359 1.281 -0.893753 -1.02955 7.68133 -89.9955 11.515 -2.04609 0.21832 -0.154362 -2.03447 0.308177 -22.7022 -2.01708 -0.406971 -2.68954 -2.01708 -0.406974 103.131 -48.6216 -80.6331 36.9129 -6.9363 4.74842 -4.24215 -16.2693 -12.4713 -3.26954 -0.190894 1.86562 -82.9213 -50.9698 89.239 -22.1116 11.0683 -27.5084 13.9777 23.3457 -32.0087 -2.49628 -0.0928486 -2.71621 7.79467 1.0219 -5.9583 -27.0116 0.781502 7.19544 
122.008 96.695 -131.363 -103.908 -59.1284 -99.4812 -177.931 -11.2504 92.3906 -36.1847 23.2082 8.03016 57.8996 0.725851 1.18319 63.7348 -3.30009 2.69491 175.069 19.073 87.7368 -17.9619 -1.97341 1.99132 52.8039 9.37639 11.8027 26.7505 0.455831 -0.273625 -0.913871 7.4825 -90.4849 11.904 -2.04536 -0.74509 0.234492 -2.0762 -0.654316 -22.3089 -1.72687 -1.32548 -2.29627 -1.72688 -1.32549 102.746 -48.1841 -81.2394 35.7553 -6.81785 4.20826 -3.35367 -16.8247 -9.96335 -2.19594 -0.131364 2.62796 -82.9215 -53.1407 89.4332 -22.4493 11.2522 -23.1519 14.0018 22.6805 -32.8756 -2.58366 -0.0935325 -2.7287 8.45979 1.87207 -2.62596 -29.1739 1.18561 5.50145 
114.574 95.8485 -124.007 -104.055 -57.066 -97.0814 -179.052 -2.60506 94.7464 -53.9007 17.5579 6.65109 44.0523 -6.02488 2.25389 51.9274 -4.61455 -6.69225 174.15 20.095 90.7925 -33.0955 -4.93929 3.84488 60.0948 6.6941 8.47196 22.4122 1.76433 2.62338 -0.499901 7.41764 -91.015 12.0232 -1.47295 -1.86421 0.351818 -1.55355 -1.79761 -22.1754 -0.844743 -2.22056 -2.1627 -0.844737 -2.22057 103.146 -47.5598 -80.5872 34.0544 -7.54407 2.98286 -3.80784 -16.365 -12.045 -4.23192 -0.315907 4.03537 -83.3212 -53.2592 88.8586 -26.1307 11.1789 -16.7784 13.3107 25.4092 -29.8654 -3.42166 -0.110399 -2.19868 8.49626 2.03299 -2.22104 -29.9759 1.02993 6.30534 
107.707 96.3323 -117.165 -106.114 -56.882 -97.7955 177.739 9.93645 94.8374 -66.6668 9.15109 5.66177 49.6173 -1.1028 5.70598 47.3197 -2.45364 -1.16861 174.169 14.0282 92.5776 -36.8652 -3.16991 3.77388 66.6214 5.03113 9.60887 25.0389 1.37766 3.90777 -0.24018 7.67017 -91.3582 11.5141 -1.11295 -2.59088 -0.158868 -1.22586 -2.53945 -22.6737 -0.283176 -2.80541 -2.66105 -0.283176 -2.80543 102.946 -47.6855 -80.912 30.8452 -9.01333 -1.01699 -4.28599 -13.4955 -16.6381 -9.39858 -0.731275 4.12776 -83.7693 -53.8542 88.2635 -28.2384 10.6535 -13.877 10.9278 31.1117 -23.3391 -5.06359 -0.132795 -2.54915 8.88515 1.03864 -2.50228 -28.498 0.114763 6.68509 
100.589 97.6506 -110.445 -103.54 -53.5373 -98.201 179.091 17.9373 87.7461 -55.9875 9.87757 3.52846 55.5062 3.11139 7.59287 54.0216 -3.17382 -0.704076 175.33 7.30799 91.6252 -34.4825 -2.33919 1.11168 71.4839 4.71568 11.9786 24.106 1.65164 4.80566 0.15919 7.57831 -91.0594 11.7109 -0.180541 -2.09336 0.0382564 -0.272469 -2.0834 -22.4837 0.456812 -2.05089 -2.47107 0.45681 -2.0509 103.24 -47.647 -80.4379 28.7108 -9.63122 -5.63052 -4.78186 -10.2654 -20.8068 -10.6853 -0.635655 1.77253 -83.5666 -53.5792 88.5316 -30.1056 7.8685 -9.32785 7.87819 36.4549 -15.6386 -9.55224 -0.249103 -1.93381 5.83933 0.243077 -3.44308 -28.1733 -0.226428 5.2619 
94.1499 98.0995 -103.717 -99.9354 -49.5876 -95.7277 -179.546 17.4499 86.8634 -23.5523 8.10913 1.10172 52.7465 1.92718 7.12302 47.1759 -1.06768 5.07052 175.437 0.107814 91.541 -30.024 0.27526 -0.109058 74.7069 5.83123 17.9802 20.9195 2.42397 6.65628 0.604387 7.41306 -90.9483 12.0505 0.753772 -1.97444 0.378263 0.666167 -2.00569 -22.1495 1.31225 -1.65676 -2.13687 1.31225 -1.65676 102.453 -46.7623 -81.6967 28.1962 -11.0172 -7.88955 -6.26987 -8.59178 -27.2094 -11.5025 -0.520559 0.0999549 -83.4129 -55.2958 88.9123 -28.6189 4.30024 -3.86279 6.44393 37.0034 -11.9822 -10.6655 -0.305459 -1.39663 4.9582 -0.12145 -3.56256 -27.82 -0.39395 4.39344 
87.8092 97.4497 -97.0331 -97.9078 -45.2115 -92.4236 -179.502 19.6412 88.1314 -7.83636 9.78849 1.98989 56.2384 0.0838672 6.00273 33.6716 -0.155512 3.79088 175.43 -4.4796 91.7187 -28.4589 -3.28387 -0.355857 73.2301 4.49005 18.1194 29.5386 1.32027 8.96672 0.993028 7.46627 -91.0952 11.952 1.45834 -2.34196 0.279651 1.35387 -2.40383 -22.2511 2.09465 -1.79558 -2.23844 2.09466 -1.79559 101.066 -46.039 -83.97 26.8655 -12.2339 -10.8337 -7.89607 -8.91045 -30.9224 -10.7695 -0.451484 -0.318728 -82.7131 -56.715 90.0238 -27.8368 1.83929 -0.491369 6.30926 35.5364 -10.7231 -10.1092 -0.277851 -1.60005 7.13319 0.266764 -3.37372 -28.0696 0.00153459 4.43169 
80.308 95.7844 -89.5074 -98.3497 -44.2353 -93.526 -179.426 19.36 87.1871 -10.5839 9.11626 1.66469 55.0747 -0.081036 7.10479 35.3428 -0.151155 5.06262 174.348 -8.50138 89.3558 -32.1748 -7.40716 -1.13742 67.4216 6.0928 20.1992 41.2474 0.966513 14.0469 0.970211 7.51673 -90.7672 11.8505 1.56845 -1.69764 0.179337 1.49224 -1.76502 -22.3587 2.0061 -1.14777 -2.34607 2.0061 -1.14777 100.992 -47.554 -84.0538 27.1852 -11.8127 -9.68649 -8.7718 -9.8252 -31.5955 -10.9178 -0.447323 -0.412484 -82.8418 -55.855 89.7742 -27.8596 0.757725 0.475508 5.76744 36.3283 -9.00047 -11.2744 -0.282663 -1.90959 6.48054 -0.1622 -5.71784 -27.8657 -0.182567 5.42126 
72.8094 94.0952 -81.819 -100.325 -46.1212 -97.295 -179.076 21.5134 84.2752 -27.7299 15.1731 1.08949 54.3366 -1.33748 11.6386 38.1707 -0.891882 1.08238 172.077 -5.96563 84.2826 -43.3383 -14.2054 -1.22068 47.695 12.4306 21.9499 34.7305 2.97697 19.5707 0.594848 7.63789 -90.2028 11.6053 1.08854 -0.514094 -0.0652903 1.06486 -0.561511 -22.6043 1.1927 -0.163136 -2.5917 1.19271 -0.163138 101.366 -48.2934 -83.4407 30.187 -11.8702 -5.71711 -7.19786 -9.97123 -27.8007 -10.219 -0.466904 0.117502 -83.2104 -54.6224 89.141 -27.2378 1.23413 -1.70815 5.58794 37.0975 -8.77343 -11.7926 -0.320146 -1.58636 6.62868 -0.608436 -7.45867 -27.7811 -0.362817 5.88327 
